<svg xmlns="http://www.w3.org/2000/svg" viewBox="0 0 512 512" width="512" height="512">
  <rect width="512" height="512" fill="#4a90e2" rx="100"/>
  <path d="M256 128c-70.7 0-128 57.3-128 128 0 70.7 57.3 128 128 128 23.6 0 45.5-6.4 64.4-17.6l56.1 56.1c12.5 12.5 32.8 12.5 45.3 0s12.5-32.8 0-45.3l-56.1-56.1c11.2-18.9 17.6-40.8 17.6-64.4 0-70.7-57.3-128-128-128zm0 192c-35.3 0-64-28.7-64-64s28.7-64 64-64 64 28.7 64 64-28.7 64-64 64z" fill="white"/>
  <circle cx="256" cy="256" r="60" fill="white"/>
  <circle cx="256" cy="256" r="40" fill="#4a90e2"/>
</svg>

